# xmcd CD database file
#
# Track frame offsets:
#	150
#	9644
#	17851
#	41197
#	53498
#	74707
#	79194
#	92803
#	113841
#	120273
#	143411
#	152987
#	174415
#	190991
#
# Disc length: 2756 seconds
#
# Revision: 0
# Processed by: cddbd v1.5.2PL0 Copyright (c) Steve Scherf et al.
# Submitted via: jetAudio 7
#
DISCID=b70ac20e
DTITLE=음악가 없음 - 앨범 없음
DYEAR=1900
DGENRE=장르 없음
TTITLE0=트랙 1
TTITLE1=트랙 2
TTITLE2=트랙 3
TTITLE3=트랙 4
TTITLE4=트랙 5
TTITLE5=트랙 6
TTITLE6=트랙 7
TTITLE7=트랙 8
TTITLE8=트랙 9
TTITLE9=트랙 10
TTITLE10=트랙 11
TTITLE11=트랙 12
TTITLE12=트랙 13
TTITLE13=트랙 14
EXTD=
EXTT0=
EXTT1=
EXTT2=
EXTT3=
EXTT4=
EXTT5=
EXTT6=
EXTT7=
EXTT8=
EXTT9=
EXTT10=
EXTT11=
EXTT12=
EXTT13=
PLAYORDER=
